<?xml version="1.0" standalone="no"?>
<!DOCTYPE svg PUBLIC "-//W3C//DTD SVG 20010904//EN"
 "http://www.w3.org/TR/2001/REC-SVG-20010904/DTD/svg10.dtd">
<svg version="1.0" xmlns="http://www.w3.org/2000/svg"
 width="71.000000pt" height="71.000000pt" viewBox="0 0 71.000000 71.000000"
 preserveAspectRatio="xMidYMid meet">
<metadata>
Created by potrace 1.14, written by Peter Selinger 2001-2017
</metadata>
<g transform="translate(0.000000,71.000000) scale(0.100000,-0.100000)"
fill="#000000" stroke="none">
<path d="M320 664 c0 -14 -35 -81 -91 -172 -17 -28 -48 -81 -83 -143 -12 -21
-49 -86 -83 -146 -35 -61 -63 -117 -63 -126 0 -15 15 -17 118 -17 l118 0 85
150 c46 82 88 150 92 150 4 0 10 -7 14 -16 3 -8 28 -52 55 -97 l49 -82 -105
-3 -104 -3 -11 -31 c-25 -71 -33 -68 184 -68 214 0 217 1 177 58 -11 15 -45
73 -78 130 -32 57 -64 111 -69 120 -70 117 -95 162 -95 171 0 6 -9 11 -20 11
-11 0 -20 -5 -20 -11 0 -5 -45 -89 -100 -184 -55 -96 -100 -179 -100 -184 0
-9 -30 -24 -36 -18 -5 4 171 317 219 389 22 34 22 51 -5 98 -23 41 -48 53 -48
24z"/>
</g>
</svg>
